  0
SECTION
  2
HEADER
  9
$ACADVER
  1
AC1014
  9
$ACADMAINTVER
 70
     9
  9
$DWGCODEPAGE
  3
ANSI_1252
  9
$INSBASE
 10
0.0
 20
0.0
 30
0.0
  9
$EXTMIN
 10
1.000000000000000E+20
 20
1.000000000000000E+20
 30
1.000000000000000E+20
  9
$EXTMAX
 10
-1.000000000000000E+20
 20
-1.000000000000000E+20
 30
-1.000000000000000E+20
  9
$LIMMIN
 10
0.0
 20
0.0
  9
$LIMMAX
 10
12.0
 20
9.0
  9
$ORTHOMODE
 70
     0
  9
$REGENMODE
 70
     1
  9
$FILLMODE
 70
     1
  9
$QTEXTMODE
 70
     0
  9
$MIRRTEXT
 70
     1
  9
$DRAGMODE
 70
     2
  9
$LTSCALE
 40
1.0
  9
$OSMODE
 70
    37
  9
$ATTMODE
 70
     1
  9
$TEXTSIZE
 40
0.2
  9
$TRACEWID
 40
0.05
  9
$TEXTSTYLE
  7
STANDARD
  9
$CLAYER
  8
0
  9
$CELTYPE
  6
BYLAYER
  9
$CECOLOR
 62
   256
  9
$CELTSCALE
 40
1.0
  9
$DELOBJ
 70
     1
  9
$DISPSILH
 70
     0
  9
$DIMSCALE
 40
1.0
  9
$DIMASZ
 40
0.18
  9
$DIMEXO
 40
0.0625
  9
$DIMDLI
 40
0.38
  9
$DIMRND
 40
0.0
  9
$DIMDLE
 40
0.0
  9
$DIMEXE
 40
0.18
  9
$DIMTP
 40
0.0
  9
$DIMTM
 40
0.0
  9
$DIMTXT
 40
0.18
  9
$DIMCEN
 40
0.09
  9
$DIMTSZ
 40
0.0
  9
$DIMTOL
 70
     0
  9
$DIMLIM
 70
     0
  9
$DIMTIH
 70
     1
  9
$DIMTOH
 70
     1
  9
$DIMSE1
 70
     0
  9
$DIMSE2
 70
     0
  9
$DIMTAD
 70
     0
  9
$DIMZIN
 70
     0
  9
$DIMBLK
  1

  9
$DIMASO
 70
     1
  9
$DIMSHO
 70
     1
  9
$DIMPOST
  1

  9
$DIMAPOST
  1

  9
$DIMALT
 70
     0
  9
$DIMALTD
 70
     2
  9
$DIMALTF
 40
25.4
  9
$DIMLFAC
 40
1.0
  9
$DIMTOFL
 70
     0
  9
$DIMTVP
 40
0.0
  9
$DIMTIX
 70
     0
  9
$DIMSOXD
 70
     0
  9
$DIMSAH
 70
     0
  9
$DIMBLK1
  1

  9
$DIMBLK2
  1

  9
$DIMSTYLE
  2
STANDARD
  9
$DIMCLRD
 70
     0
  9
$DIMCLRE
 70
     0
  9
$DIMCLRT
 70
     0
  9
$DIMTFAC
 40
1.0
  9
$DIMGAP
 40
0.09
  9
$DIMJUST
 70
     0
  9
$DIMSD1
 70
     0
  9
$DIMSD2
 70
     0
  9
$DIMTOLJ
 70
     1
  9
$DIMTZIN
 70
     0
  9
$DIMALTZ
 70
     0
  9
$DIMALTTZ
 70
     0
  9
$DIMFIT
 70
     3
  9
$DIMUPT
 70
     0
  9
$DIMUNIT
 70
     2
  9
$DIMDEC
 70
     4
  9
$DIMTDEC
 70
     4
  9
$DIMALTU
 70
     2
  9
$DIMALTTD
 70
     2
  9
$DIMTXSTY
  7
STANDARD
  9
$DIMAUNIT
 70
     0
  9
$LUNITS
 70
     2
  9
$LUPREC
 70
     4
  9
$SKETCHINC
 40
0.1
  9
$FILLETRAD
 40
0.5
  9
$AUNITS
 70
     0
  9
$AUPREC
 70
     0
  9
$MENU
  1
.
  9
$ELEVATION
 40
0.0
  9
$PELEVATION
 40
0.0
  9
$THICKNESS
 40
0.0
  9
$LIMCHECK
 70
     0
  9
$CHAMFERA
 40
0.5
  9
$CHAMFERB
 40
0.5
  9
$CHAMFERC
 40
1.0
  9
$CHAMFERD
 40
0.0
  9
$SKPOLY
 70
     0
  9
$TDCREATE
 40
2456510.130392801
  9
$TDUPDATE
 40
2456510.130392813
  9
$TDINDWG
 40
0.0000000116
  9
$TDUSRTIMER
 40
0.0000000116
  9
$USRTIMER
 70
     1
  9
$ANGBASE
 50
0.0
  9
$ANGDIR
 70
     0
  9
$PDMODE
 70
     0
  9
$PDSIZE
 40
0.0
  9
$PLINEWID
 40
0.0
  9
$COORDS
 70
     1
  9
$SPLFRAME
 70
     0
  9
$SPLINETYPE
 70
     6
  9
$SPLINESEGS
 70
     8
  9
$ATTDIA
 70
     0
  9
$ATTREQ
 70
     1
  9
$HANDLING
 70
     1
  9
$HANDSEED
  5
161
  9
$SURFTAB1
 70
     6
  9
$SURFTAB2
 70
     6
  9
$SURFTYPE
 70
     6
  9
$SURFU
 70
     6
  9
$SURFV
 70
     6
  9
$UCSNAME
  2

  9
$UCSORG
 10
0.0
 20
0.0
 30
0.0
  9
$UCSXDIR
 10
1.0
 20
0.0
 30
0.0
  9
$UCSYDIR
 10
0.0
 20
1.0
 30
0.0
  9
$PUCSNAME
  2

  9
$PUCSORG
 10
0.0
 20
0.0
 30
0.0
  9
$PUCSXDIR
 10
1.0
 20
0.0
 30
0.0
  9
$PUCSYDIR
 10
0.0
 20
1.0
 30
0.0
  9
$USERI1
 70
     0
  9
$USERI2
 70
     0
  9
$USERI3
 70
     0
  9
$USERI4
 70
     0
  9
$USERI5
 70
     0
  9
$USERR1
 40
0.0
  9
$USERR2
 40
0.0
  9
$USERR3
 40
0.0
  9
$USERR4
 40
0.0
  9
$USERR5
 40
0.0
  9
$WORLDVIEW
 70
     1
  9
$SHADEDGE
 70
     3
  9
$SHADEDIF
 70
    70
  9
$TILEMODE
 70
     1
  9
$MAXACTVP
 70
    64
  9
$PINSBASE
 10
0.0
 20
0.0
 30
0.0
  9
$PLIMCHECK
 70
     0
  9
$PEXTMIN
 10
1.000000000000000E+20
 20
1.000000000000000E+20
 30
1.000000000000000E+20
  9
$PEXTMAX
 10
-1.000000000000000E+20
 20
-1.000000000000000E+20
 30
-1.000000000000000E+20
  9
$PLIMMIN
 10
0.0
 20
0.0
  9
$PLIMMAX
 10
12.0
 20
9.0
  9
$UNITMODE
 70
     0
  9
$VISRETAIN
 70
     1
  9
$PLINEGEN
 70
     0
  9
$PSLTSCALE
 70
     1
  9
$TREEDEPTH
 70
  3020
  9
$PICKSTYLE
 70
     1
  9
$CMLSTYLE
  2
STANDARD
  9
$CMLJUST
 70
     0
  9
$CMLSCALE
 40
1.0
  9
$PROXYGRAPHICS
 70
     1
  9
$MEASUREMENT
 70
     0
  0
ENDSEC
  0
SECTION
  2
CLASSES
  0
CLASS
  1
ACDBDICTIONARYWDFLT
  2
AcDbDictionaryWithDefault
  3
ObjectDBX Classes
 90
        0
280
     0
281
     0
  0
CLASS
  1
VISUALSTYLE
  2
AcDbVisualStyle
  3
ObjectDBX Classes
 90
     4095
280
     0
281
     0
  0
CLASS
  1
MATERIAL
  2
AcDbMaterial
  3
ObjectDBX Classes
 90
     1153
280
     0
281
     0
  0
CLASS
  1
DICTIONARYVAR
  2
AcDbDictionaryVar
  3
ObjectDBX Classes
 90
        0
280
     0
281
     0
  0
CLASS
  1
XRECORD
  2
AcDbXrecord
  3
AutoCAD 2000
 90
        0
280
     0
281
     0
  0
CLASS
  1
LWPOLYLINE
  2
AcDbPolyline
  3
AutoCAD 2000
 90
        0
280
     0
281
     1
  0
CLASS
  1
HATCH
  2
AcDbHatch
  3
AutoCAD 2000
 90
        0
280
     0
281
     1
  0
CLASS
  1
ACDBPLACEHOLDER
  2
AcDbPlaceHolder
  3
ObjectDBX Classes
 90
        0
280
     0
281
     0
  0
CLASS
  1
LAYOUT
  2
AcDbLayout
  3
ObjectDBX Classes
 90
        0
280
     0
281
     0
  0
ENDSEC
  0
SECTION
  2
TABLES
  0
TABLE
  2
VPORT
  5
8
330
0
100
AcDbSymbolTable
 70
     1
  0
VPORT
  5
29
330
8
100
AcDbSymbolTableRecord
100
AcDbViewportTableRecord
  2
*ACTIVE
 70
     0
 10
0.0
 20
0.0
 11
1.0
 21
1.0
 12
0.0
 22
0.0
 13
0.0
 23
0.0
 14
0.5
 24
0.5
 15
0.5
 25
0.5
 16
0.0
 26
0.0
 36
1.0
 17
0.0
 27
0.0
 37
-1000.0
 40
259.1716167432249
 41
1.82650142993327
 42
50.0
 43
410.9936762914414
 44
878.6688418509232
 50
0.0
 51
0.0
 71
     0
 72
   100
 73
     1
 74
     3
 75
     0
 76
     0
 77
     0
 78
     0
  0
ENDTAB
  0
TABLE
  2
LTYPE
  5
5
330
0
100
AcDbSymbolTable
 70
     1
  0
LTYPE
  5
14
330
5
100
AcDbSymbolTableRecord
100
AcDbLinetypeTableRecord
  2
BYBLOCK
 70
     0
  3

 72
    65
 73
     0
 40
0.0
  0
LTYPE
  5
15
330
5
100
AcDbSymbolTableRecord
100
AcDbLinetypeTableRecord
  2
BYLAYER
 70
     0
  3

 72
    65
 73
     0
 40
0.0
  0
LTYPE
  5
16
330
5
100
AcDbSymbolTableRecord
100
AcDbLinetypeTableRecord
  2
CONTINUOUS
 70
     0
  3
Solid line
 72
    65
 73
     0
 40
0.0
  0
ENDTAB
  0
TABLE
  2
LAYER
  5
2
330
0
100
AcDbSymbolTable
 70
     3
  0
LAYER
  5
10
330
2
100
AcDbSymbolTableRecord
100
AcDbLayerTableRecord
  2
0
 70
     0
 62
     7
  6
CONTINUOUS
  0
LAYER
  5
3F
330
2
100
AcDbSymbolTableRecord
100
AcDbLayerTableRecord
  2
PROFILEEDGES
 70
     0
 62
     7
  6
CONTINUOUS
  0
LAYER
  5
40
330
2
100
AcDbSymbolTableRecord
100
AcDbLayerTableRecord
  2
SECTIONCUTEDGES
 70
     0
 62
     7
  6
CONTINUOUS
  0
ENDTAB
  0
TABLE
  2
STYLE
  5
3
330
0
100
AcDbSymbolTable
 70
     1
  0
STYLE
  5
11
330
3
100
AcDbSymbolTableRecord
100
AcDbTextStyleTableRecord
  2
STANDARD
 70
     0
 40
0.0
 41
1.0
 50
0.0
 71
     0
 42
0.2
  3
txt
  4

  0
ENDTAB
  0
TABLE
  2
VIEW
  5
6
330
0
100
AcDbSymbolTable
 70
     0
  0
ENDTAB
  0
TABLE
  2
UCS
  5
7
330
0
100
AcDbSymbolTable
 70
     0
  0
ENDTAB
  0
TABLE
  2
APPID
  5
9
330
0
100
AcDbSymbolTable
 70
     1
  0
APPID
  5
12
330
9
100
AcDbSymbolTableRecord
100
AcDbRegAppTableRecord
  2
ACAD
 70
     0
  0
ENDTAB
  0
TABLE
  2
DIMSTYLE
  5
A
330
0
100
AcDbSymbolTable
 70
     1
  0
DIMSTYLE
105
27
330
A
100
AcDbSymbolTableRecord
100
AcDbDimStyleTableRecord
  2
STANDARD
 70
     0
  3

  4

  5

  6

  7

 40
1.0
 41
0.18
 42
0.0625
 43
0.38
 44
0.18
 45
0.0
 46
0.0
 47
0.0
 48
0.0
140
0.18
141
0.09
142
0.0
143
25.4
144
1.0
145
0.0
146
1.0
147
0.09
 71
     0
 72
     0
 73
     1
 74
     1
 75
     0
 76
     0
 77
     0
 78
     0
170
     0
171
     2
172
     0
173
     0
174
     0
175
     0
176
     0
177
     0
178
     0
270
     2
271
     4
272
     4
273
     2
274
     2
340
11
275
     0
280
     0
281
     0
282
     0
283
     1
284
     0
285
     0
286
     0
287
     3
288
     0
  0
ENDTAB
  0
TABLE
  2
BLOCK_RECORD
  5
1
330
0
100
AcDbSymbolTable
 70
     1
  0
BLOCK_RECORD
  5
1F
330
1
100
AcDbSymbolTableRecord
100
AcDbBlockTableRecord
  2
*MODEL_SPACE
  0
BLOCK_RECORD
  5
1B
330
1
100
AcDbSymbolTableRecord
100
AcDbBlockTableRecord
  2
*PAPER_SPACE
  0
ENDTAB
  0
ENDSEC
  0
SECTION
  2
BLOCKS
  0
BLOCK
  5
20
330
1F
100
AcDbEntity
  8
0
100
AcDbBlockBegin
  2
*MODEL_SPACE
 70
     0
 10
0.0
 20
0.0
 30
0.0
  3
*MODEL_SPACE
  1

  0
ENDBLK
  5
21
330
1F
100
AcDbEntity
  8
0
100
AcDbBlockEnd
  0
BLOCK
  5
1C
330
1B
100
AcDbEntity
 67
     1
  8
0
100
AcDbBlockBegin
  2
*PAPER_SPACE
 70
     0
 10
0.0
 20
0.0
 30
0.0
  3
*PAPER_SPACE
  1

  0
ENDBLK
  5
1D
330
1B
100
AcDbEntity
 67
     1
  8
0
100
AcDbBlockEnd
  0
ENDSEC
  0
SECTION
  2
ENTITIES
  0
LINE
  5
41
330
1F
100
AcDbEntity
  8
0
100
AcDbLine
 10
236.6886642898089
 20
87.3486276349365
 30
0.0
 11
187.3908754460068
 21
129.5858083716125
 31
0.0
  0
LINE
  5
42
330
1F
100
AcDbEntity
  8
0
100
AcDbLine
 10
236.6886642898089
 20
78.56298452317351
 30
0.0
 11
177.9646110830069
 21
129.5858083716125
 31
0.0
  0
LINE
  5
43
330
1F
100
AcDbEntity
  8
0
100
AcDbLine
 10
236.6886642898089
 20
52.87389712574708
 30
0.0
 11
151.8474221109956
 21
129.5858083716125
 31
0.0
  0
LINE
  5
44
330
1F
100
AcDbEntity
  8
0
100
AcDbLine
 10
236.6886642898089
 20
58.71668912064193
 30
0.0
 11
157.6066879690746
 21
129.5858083716125
 31
0.0
  0
LINE
  5
45
330
1F
100
AcDbEntity
  8
0
100
AcDbLine
 10
236.6886642898089
 20
61.72271613867823
 30
0.0
 11
160.6101606291577
 21
129.5858083716125
 31
0.0
  0
LINE
  5
46
330
1F
100
AcDbEntity
  8
0
100
AcDbLine
 10
236.6886642898089
 20
65.17269366767125
 30
0.0
 11
164.0916957230154
 21
129.5858083716125
 31
0.0
  0
LINE
  5
47
330
1F
100
AcDbEntity
  8
0
100
AcDbLine
 10
236.6886642898089
 20
68.83029661259015
 30
0.0
 11
167.8236450775974
 21
129.5858083716125
 31
0.0
  0
LINE
  5
48
330
1F
100
AcDbEntity
  8
0
100
AcDbLine
 10
236.6886642898089
 20
72.44311029998384
 30
0.0
 11
171.5519032564441
 21
129.5858083716125
 31
0.0
  0
LINE
  5
49
330
1F
100
AcDbEntity
  8
0
100
AcDbLine
 10
236.6886642898089
 20
75.7623582161222
 30
0.0
 11
175.0146278780951
 21
129.5858083716125
 31
0.0
  0
LINE
  5
4A
330
1F
100
AcDbEntity
  8
0
100
AcDbLine
 10
236.6886642898089
 20
52.31203626163089
 30
0.0
 11
151.298983169119
 21
129.5858083716125
 31
0.0
  0
LINE
  5
4B
330
1F
100
AcDbEntity
  8
0
100
AcDbLine
 10
236.6886642898089
 20
88.0939540254532
 30
0.0
 11
188.2027956715354
 21
129.5858083716125
 31
0.0
  0
LINE
  5
4C
330
1F
100
AcDbEntity
  8
0
100
AcDbLine
 10
236.6886642898089
 20
88.5125792019841
 30
0.0
 11
188.6596778938557
 21
129.5858083716125
 31
0.0
  0
LINE
  5
4D
330
1F
100
AcDbEntity
  8
0
100
AcDbLine
 10
236.6886642898089
 20
99.03248931289401
 30
0.0
 11
200.3463893915297
 21
129.5858083716125
 31
0.0
  0
LINE
  5
4E
330
1F
100
AcDbEntity
  8
0
100
AcDbLine
 10
-74.36787385599357
 20
69.31029416242565
 30
0.0
 11
-73.78955893904097
 21
67.98711036280437
 31
0.0
  0
LINE
  5
4F
330
1F
100
AcDbEntity
  8
0
100
AcDbLine
 10
-73.78955893904097
 20
67.98711036280437
 30
0.0
 11
-73.6955355965607
 21
66.70007819615809
 31
0.0
  0
LINE
  5
50
330
1F
100
AcDbEntity
  8
0
100
AcDbLine
 10
-74.79154432197622
 20
64.18381127415817
 30
0.0
 11
-75.9108536534788
 21
63.12801362910501
 31
0.0
  0
LINE
  5
51
330
1F
100
AcDbEntity
  8
0
100
AcDbLine
 10
-75.9108536534788
 20
63.12801362910501
 30
0.0
 11
-77.31886176415368
 21
62.30890755215695
 31
0.0
  0
LINE
  5
52
330
1F
100
AcDbEntity
  8
0
100
AcDbLine
 10
6.008736189845024
 20
-68.38497037743565
 30
0.0
 11
7.8469195518333
 21
-67.6290257436929
 31
0.0
  0
LINE
  5
53
330
1F
100
AcDbEntity
  8
0
100
AcDbLine
 10
7.8469195518333
 20
-67.6290257436929
 30
0.0
 11
9.830771827238856
 21
-67.35201264593377
 31
0.0
  0
LINE
  5
54
330
1F
100
AcDbEntity
  8
0
100
AcDbLine
 10
13.70823638026673
 20
-68.27458475705254
 30
0.0
 11
15.34375840302128
 21
-69.41433795474511
 31
0.0
  0
LINE
  5
55
330
1F
100
AcDbEntity
  8
0
100
AcDbLine
 10
15.34375840302128
 20
-69.41433795474511
 30
0.0
 11
16.76993471416235
 21
-71.08660780893761
 31
0.0
  0
LINE
  5
56
330
1F
100
AcDbEntity
  8
0
100
AcDbLine
 10
90.25400591721149
 20
-28.74886074242276
 30
0.0
 11
89.200181133121
 21
-26.99773761352806
 31
0.0
  0
LINE
  5
57
330
1F
100
AcDbEntity
  8
0
100
AcDbLine
 10
89.200181133121
 20
-26.99773761352806
 30
0.0
 11
88.71951761846658
 21
-25.30925149826127
 31
0.0
  0
LINE
  5
58
330
1F
100
AcDbEntity
  8
0
100
AcDbLine
 10
89.24219139536238
 20
-22.04956667155471
 30
0.0
 11
90.203756791222
 21
-20.69791205056044
 31
0.0
  0
LINE
  5
59
330
1F
100
AcDbEntity
  8
0
100
AcDbLine
 10
90.203756791222
 20
-20.69791205056044
 30
0.0
 11
91.55304023067927
 21
-19.65572577925594
 31
0.0
  0
LINE
  5
5A
330
1F
100
AcDbEntity
  8
0
100
AcDbLine
 10
-0.9897377663216771
 20
96.4137438013534
 30
0.0
 11
-2.446839511677528
 21
95.94305531180619
 31
0.0
  0
LINE
  5
5B
330
1F
100
AcDbEntity
  8
0
100
AcDbLine
 10
-2.446839511677528
 20
95.94305531180619
 30
0.0
 11
-4.017516180177503
 21
95.77016316514636
 31
0.0
  0
LINE
  5
5C
330
1F
100
AcDbEntity
  8
0
100
AcDbLine
 10
-7.062315786951745
 20
96.34511417297652
 30
0.0
 11
-8.324807982385916
 21
97.05206043427381
 31
0.0
  0
LINE
  5
5D
330
1F
100
AcDbEntity
  8
0
100
AcDbLine
 10
-8.324807982385916
 20
97.05206043427381
 30
0.0
 11
-9.402490356157744
 21
98.08264773413326
 31
0.0
  0
LINE
  5
5E
330
1F
100
AcDbEntity
  8
0
100
AcDbLine
 10
-9.402490356157744
 20
98.08264773413326
 30
0.0
 11
-10.97286215397888
 21
100.0812391885329
 31
0.0
  0
LINE
  5
5F
330
1F
100
AcDbEntity
  8
0
100
AcDbLine
 10
-0.9897377663216771
 20
96.4137438013534
 30
0.0
 11
1.853115401156779
 21
97.68396723219111
 31
0.0
  0
LINE
  5
60
330
1F
100
AcDbEntity
  8
0
100
AcDbLine
 10
-74.36787385599357
 20
69.31029416242565
 30
0.0
 11
-75.78982615601343
 21
71.50079777704697
 31
0.0
  0
LINE
  5
61
330
1F
100
AcDbEntity
  8
0
100
AcDbLine
 10
-77.31886176415368
 20
62.30890755215695
 30
0.0
 11
-80.49981109256058
 21
60.88761839959982
 31
0.0
  0
LINE
  5
62
330
1F
100
AcDbEntity
  8
0
100
AcDbLine
 10
6.008736189845024
 20
-68.38497037743565
 30
0.0
 11
2.404316848369056
 21
-70.43818284662999
 31
0.0
  0
LINE
  5
63
330
1F
100
AcDbEntity
  8
0
100
AcDbLine
 10
16.76993471416235
 20
-71.08660780893761
 30
0.0
 11
18.89899049193771
 21
-74.3663974129141
 31
0.0
  0
LINE
  5
64
330
1F
100
AcDbEntity
  8
0
100
AcDbLine
 10
90.25400591721149
 20
-28.74886074242276
 30
0.0
 11
92.55889291995527
 21
-31.68226000621574
 31
0.0
  0
LINE
  5
65
330
1F
100
AcDbEntity
  8
0
100
AcDbLine
 10
91.55304023067927
 20
-19.65572577925594
 30
0.0
 11
94.7044131982457
 21
-17.86058551973229
 31
0.0
  0
LINE
  5
66
330
1F
100
AcDbEntity
  8
0
100
AcDbLine
 10
23.58018082800094
 20
-75.48705086476541
 30
0.0
 11
91.94455663341138
 21
-35.67737101110711
 31
0.0
  0
LINE
  5
67
330
1F
100
AcDbEntity
  8
0
100
AcDbLine
 10
-2.216841428025727
 20
-69.33187168536037
 30
0.0
 11
-1.814250704501435
 21
-69.97472583799504
 31
0.0
  0
LINE
  5
68
330
1F
100
AcDbEntity
  8
0
100
AcDbLine
 10
-81.85205122246626
 20
57.8290943302917
 30
0.0
 11
-2.216841428025727
 21
-69.33187168536037
 31
0.0
  0
LINE
  5
69
330
1F
100
AcDbEntity
  8
0
100
AcDbLine
 10
-14.57118110975774
 20
100.757337991632
 30
0.0
 11
-74.4936046227088
 21
74.4328012266601
 31
0.0
  0
LINE
  5
6A
330
1F
100
AcDbEntity
  8
0
100
AcDbLine
 10
95.28972886649846
 20
-14.05351504080545
 30
0.0
 11
5.487899891309026
 21
97.00103089876741
 31
0.0
  0
LINE
  5
6B
330
1F
100
AcDbEntity
  8
0
100
AcDbLine
 10
2.404316848369056
 20
-70.43818284662999
 30
0.0
 11
1.72812221402166
 21
-70.82336867638858
 31
0.0
  0
LINE
  5
6C
330
1F
100
AcDbEntity
  8
0
100
AcDbLine
 10
23.58018082800094
 20
-75.48705086476541
 30
0.0
 11
23.19076713153766
 21
-75.68084955175408
 31
0.0
  0
LINE
  5
6D
330
1F
100
AcDbEntity
  8
0
100
AcDbLine
 10
23.19076713153766
 20
-75.68084955175408
 30
0.0
 11
22.77663993486095
 21
-75.8236530764685
 31
0.0
  0
LINE
  5
6E
330
1F
100
AcDbEntity
  8
0
100
AcDbLine
 10
22.77663993486095
 20
-75.8236530764685
 30
0.0
 11
22.34495579025188
 21
-75.91296138994483
 31
0.0
  0
LINE
  5
6F
330
1F
100
AcDbEntity
  8
0
100
AcDbLine
 10
22.34495579025188
 20
-75.91296138994483
 30
0.0
 11
21.90318517094219
 21
-75.94720961794026
 31
0.0
  0
LINE
  5
70
330
1F
100
AcDbEntity
  8
0
100
AcDbLine
 10
21.90318517094219
 20
-75.94720961794026
 30
0.0
 11
21.45897885782347
 21
-75.92579737969335
 31
0.0
  0
LINE
  5
71
330
1F
100
AcDbEntity
  8
0
100
AcDbLine
 10
21.45897885782347
 20
-75.92579737969335
 30
0.0
 11
21.02003070321687
 21
-75.84910005562531
 31
0.0
  0
LINE
  5
72
330
1F
100
AcDbEntity
  8
0
100
AcDbLine
 10
21.02003070321687
 20
-75.84910005562531
 30
0.0
 11
20.59393956072399
 21
-75.71846174110316
 31
0.0
  0
LINE
  5
73
330
1F
100
AcDbEntity
  8
0
100
AcDbLine
 10
20.59393956072399
 20
-75.71846174110316
 30
0.0
 11
20.18807319133321
 21
-75.53617005074126
 31
0.0
  0
LINE
  5
74
330
1F
100
AcDbEntity
  8
0
100
AcDbLine
 10
20.18807319133321
 20
-75.53617005074126
 30
0.0
 11
19.80943689699817
 21
-75.30541335903996
 31
0.0
  0
LINE
  5
75
330
1F
100
AcDbEntity
  8
0
100
AcDbLine
 10
19.80943689699817
 20
-75.30541335903996
 30
0.0
 11
19.46454949674597
 21
-75.03022146315676
 31
0.0
  0
LINE
  5
76
330
1F
100
AcDbEntity
  8
0
100
AcDbLine
 10
19.46454949674597
 20
-75.03022146315676
 30
0.0
 11
19.15932905350985
 21
-74.71539101822762
 31
0.0
  0
LINE
  5
77
330
1F
100
AcDbEntity
  8
0
100
AcDbLine
 10
19.15932905350985
 20
-74.71539101822762
 30
0.0
 11
18.89899049193771
 21
-74.3663974129141
 31
0.0
  0
LINE
  5
78
330
1F
100
AcDbEntity
  8
0
100
AcDbLine
 10
2.404316848369056
 20
-70.43818284662999
 30
0.0
 11
2.026041707007293
 21
-70.68666793472674
 31
0.0
  0
LINE
  5
79
330
1F
100
AcDbEntity
  8
0
100
AcDbLine
 10
2.026041707007293
 20
-70.68666793472674
 30
0.0
 11
1.72812221402166
 21
-70.82336867638858
 31
0.0
  0
LINE
  5
7A
330
1F
100
AcDbEntity
  8
0
100
AcDbLine
 10
1.611707408798635
 20
-70.87678575915454
 30
0.0
 11
1.171264244314808
 21
-71.00391634184577
 31
0.0
  0
LINE
  5
7B
330
1F
100
AcDbEntity
  8
0
100
AcDbLine
 10
1.171264244314808
 20
-71.00391634184577
 30
0.0
 11
0.7153097313143135
 21
-71.06496663445714
 31
0.0
  0
LINE
  5
7C
330
1F
100
AcDbEntity
  8
0
100
AcDbLine
 10
0.7153097313143135
 20
-71.06496663445714
 30
0.0
 11
0.2548266163481404
 21
-71.05845024818197
 31
0.0
  0
LINE
  5
7D
330
1F
100
AcDbEntity
  8
0
100
AcDbLine
 10
0.2548266163481404
 20
-71.05845024818197
 30
0.0
 11
-0.1990898006729592
 21
-70.9845258697929
 31
0.0
  0
LINE
  5
7E
330
1F
100
AcDbEntity
  8
0
100
AcDbLine
 10
-0.1990898006729592
 20
-70.9845258697929
 30
0.0
 11
-0.6355074695597268
 21
-70.84499315721527
 31
0.0
  0
LINE
  5
7F
330
1F
100
AcDbEntity
  8
0
100
AcDbLine
 10
-0.6355074695597268
 20
-70.84499315721527
 30
0.0
 11
-1.043928852661258
 21
-70.6432462438525
 31
0.0
  0
LINE
  5
80
330
1F
100
AcDbEntity
  8
0
100
AcDbLine
 10
-1.043928852661258
 20
-70.6432462438525
 30
0.0
 11
-1.414550151884963
 21
-70.38418631056119
 31
0.0
  0
LINE
  5
81
330
1F
100
AcDbEntity
  8
0
100
AcDbLine
 10
-1.414550151884963
 20
-70.38418631056119
 30
0.0
 11
-1.738501456907736
 21
-70.07409594375376
 31
0.0
  0
LINE
  5
82
330
1F
100
AcDbEntity
  8
0
100
AcDbLine
 10
-1.738501456907736
 20
-70.07409594375376
 30
0.0
 11
-1.814250704501435
 21
-69.97472583799504
 31
0.0
  0
LINE
  5
83
330
1F
100
AcDbEntity
  8
0
100
AcDbLine
 10
-2.008061476323807
 20
-69.72047912921627
 30
0.0
 11
-2.216841428025727
 21
-69.33187168536037
 31
0.0
  0
LINE
  5
84
330
1F
100
AcDbEntity
  8
0
100
AcDbLine
 10
1.72812221402166
 20
-70.82336867638858
 30
0.0
 11
1.611707408798635
 21
-70.87678575915454
 31
0.0
  0
LINE
  5
85
330
1F
100
AcDbEntity
  8
0
100
AcDbLine
 10
-1.814250704501435
 20
-69.97472583799504
 30
0.0
 11
-2.008061476323807
 21
-69.72047912921627
 31
0.0
  0
LINE
  5
86
330
1F
100
AcDbEntity
  8
0
100
AcDbLine
 10
94.7044131982457
 20
-17.86058551973229
 30
0.0
 11
95.01591094575483
 21
-17.65327947689313
 31
0.0
  0
LINE
  5
87
330
1F
100
AcDbEntity
  8
0
100
AcDbLine
 10
95.01591094575483
 20
-17.65327947689313
 30
0.0
 11
95.2889557108613
 21
-17.40869817516614
 31
0.0
  0
LINE
  5
88
330
1F
100
AcDbEntity
  8
0
100
AcDbLine
 10
95.2889557108613
 20
-17.40869817516614
 30
0.0
 11
95.5188769922349
 21
-17.13109707935766
 31
0.0
  0
LINE
  5
89
330
1F
100
AcDbEntity
  8
0
100
AcDbLine
 10
95.5188769922349
 20
-17.13109707935766
 30
0.0
 11
95.7017630213534
 21
-16.82529592066584
 31
0.0
  0
LINE
  5
8A
330
1F
100
AcDbEntity
  8
0
100
AcDbLine
 10
95.7017630213534
 20
-16.82529592066584
 30
0.0
 11
95.83452613090279
 21
-16.49659144318197
 31
0.0
  0
LINE
  5
8B
330
1F
100
AcDbEntity
  8
0
100
AcDbLine
 10
95.83452613090279
 20
-16.49659144318197
 30
0.0
 11
95.91495270185362
 21
-16.15066237991082
 31
0.0
  0
LINE
  5
8C
330
1F
100
AcDbEntity
  8
0
100
AcDbLine
 10
95.91495270185362
 20
-16.15066237991082
 30
0.0
 11
95.94173703897641
 21
-15.7934685846482
 31
0.0
  0
LINE
  5
8D
330
1F
100
AcDbEntity
  8
0
100
AcDbLine
 10
95.94173703897641
 20
-15.7934685846482
 30
0.0
 11
95.9144988750723
 21
-15.43114629621379
 31
0.0
  0
LINE
  5
8E
330
1F
100
AcDbEntity
  8
0
100
AcDbLine
 10
95.9144988750723
 20
-15.43114629621379
 30
0.0
 11
95.83378453965453
 21
-15.0699015110847
 31
0.0
  0
LINE
  5
8F
330
1F
100
AcDbEntity
  8
0
100
AcDbLine
 10
95.83378453965453
 20
-15.0699015110847
 30
0.0
 11
95.70105213896375
 21
-14.71590339432072
 31
0.0
  0
LINE
  5
90
330
1F
100
AcDbEntity
  8
0
100
AcDbLine
 10
95.70105213896375
 20
-14.71590339432072
 30
0.0
 11
95.51864137395548
 21
-14.37517957322577
 31
0.0
  0
LINE
  5
91
330
1F
100
AcDbEntity
  8
0
100
AcDbLine
 10
95.51864137395548
 20
-14.37517957322577
 30
0.0
 11
95.28972886649846
 21
-14.05351504080545
 31
0.0
  0
LINE
  5
92
330
1F
100
AcDbEntity
  8
0
100
AcDbLine
 10
92.55889291995527
 20
-31.68226000621574
 30
0.0
 11
92.79213611092891
 21
-32.01977282101825
 31
0.0
  0
LINE
  5
93
330
1F
100
AcDbEntity
  8
0
100
AcDbLine
 10
92.79213611092891
 20
-32.01977282101825
 30
0.0
 11
92.97767671584582
 21
-32.37729192198226
 31
0.0
  0
LINE
  5
94
330
1F
100
AcDbEntity
  8
0
100
AcDbLine
 10
92.97767671584582
 20
-32.37729192198226
 30
0.0
 11
93.11228165243239
 21
-32.7487483152647
 31
0.0
  0
LINE
  5
95
330
1F
100
AcDbEntity
  8
0
100
AcDbLine
 10
93.11228165243239
 20
-32.7487483152647
 30
0.0
 11
93.19357568527052
 21
-33.12781787052799
 31
0.0
  0
LINE
  5
96
330
1F
100
AcDbEntity
  8
0
100
AcDbLine
 10
93.19357568527052
 20
-33.12781787052799
 30
0.0
 11
93.22008694329008
 21
-33.50802733632099
 31
0.0
  0
LINE
  5
97
330
1F
100
AcDbEntity
  8
0
100
AcDbLine
 10
93.22008694329008
 20
-33.50802733632099
 30
0.0
 11
93.1912775982053
 21
-33.88286418367999
 31
0.0
  0
LINE
  5
98
330
1F
100
AcDbEntity
  8
0
100
AcDbLine
 10
93.1912775982053
 20
-33.88286418367999
 30
0.0
 11
93.1075588075684
 21
-34.24588846813364
 31
0.0
  0
LINE
  5
99
330
1F
100
AcDbEntity
  8
0
100
AcDbLine
 10
93.1075588075684
 20
-34.24588846813364
 30
0.0
 11
92.97028927536432
 21
-34.59084477421939
 31
0.0
  0
LINE
  5
9A
330
1F
100
AcDbEntity
  8
0
100
AcDbLine
 10
92.97028927536432
 20
-34.59084477421939
 30
0.0
 11
92.7817570700687
 21
-34.91177221402129
 31
0.0
  0
LINE
  5
9B
330
1F
100
AcDbEntity
  8
0
100
AcDbLine
 10
92.7817570700687
 20
-34.91177221402129
 30
0.0
 11
92.54514465996775
 21
-35.20311040004817
 31
0.0
  0
LINE
  5
9C
330
1F
100
AcDbEntity
  8
0
100
AcDbLine
 10
92.54514465996775
 20
-35.20311040004817
 30
0.0
 11
92.26447747095844
 21
-35.45979930991528
 31
0.0
  0
LINE
  5
9D
330
1F
100
AcDbEntity
  8
0
100
AcDbLine
 10
92.26447747095844
 20
-35.45979930991528
 30
0.0
 11
91.94455663341138
 21
-35.67737101110711
 31
0.0
  0
LINE
  5
9E
330
1F
100
AcDbEntity
  8
0
100
AcDbLine
 10
5.487899891309026
 20
97.00103089876741
 30
0.0
 11
5.289228134445729
 21
97.21408303783038
 31
0.0
  0
LINE
  5
9F
330
1F
100
AcDbEntity
  8
0
100
AcDbLine
 10
5.289228134445729
 20
97.21408303783038
 30
0.0
 11
5.055355667338103
 21
97.40599018704677
 31
0.0
  0
LINE
  5
A0
330
1F
100
AcDbEntity
  8
0
100
AcDbLine
 10
5.055355667338103
 20
97.40599018704677
 30
0.0
 11
4.790289340491238
 21
97.57351116247021
 31
0.0
  0
LINE
  5
A1
330
1F
100
AcDbEntity
  8
0
100
AcDbLine
 10
4.790289340491238
 20
97.57351116247021
 30
0.0
 11
4.498554936956269
 21
97.71382162537479
 31
0.0
  0
LINE
  5
A2
330
1F
100
AcDbEntity
  8
0
100
AcDbLine
 10
4.498554936956269
 20
97.71382162537479
 30
0.0
 11
4.185120402991308
 21
97.82455956543859
 31
0.0
  0
LINE
  5
A3
330
1F
100
AcDbEntity
  8
0
100
AcDbLine
 10
4.185120402991308
 20
97.82455956543859
 30
0.0
 11
3.855312465253837
 21
97.90386309787442
 31
0.0
  0
LINE
  5
A4
330
1F
100
AcDbEntity
  8
0
100
AcDbLine
 10
3.855312465253837
 20
97.90386309787442
 30
0.0
 11
3.514727950182797
 21
97.9504001027478
 31
0.0
  0
LINE
  5
A5
330
1F
100
AcDbEntity
  8
0
100
AcDbLine
 10
3.514727950182797
 20
97.9504001027478
 30
0.0
 11
3.169141156349176
 21
97.96338934715685
 31
0.0
  0
LINE
  5
A6
330
1F
100
AcDbEntity
  8
0
100
AcDbLine
 10
3.169141156349176
 20
97.96338934715685
 30
0.0
 11
2.824408653738455
 21
97.9426128399606
 31
0.0
  0
LINE
  5
A7
330
1F
100
AcDbEntity
  8
0
100
AcDbLine
 10
2.824408653738455
 20
97.9426128399606
 30
0.0
 11
2.486372897554832
 21
97.88841927488131
 31
0.0
  0
LINE
  5
A8
330
1F
100
AcDbEntity
  8
0
100
AcDbLine
 10
2.486372897554832
 20
97.88841927488131
 30
0.0
 11
2.160766049878892
 21
97.8017185220966
 31
0.0
  0
LINE
  5
A9
330
1F
100
AcDbEntity
  8
0
100
AcDbLine
 10
2.160766049878892
 20
97.8017185220966
 30
0.0
 11
1.853115401156779
 21
97.68396723219111
 31
0.0
  0
LINE
  5
AA
330
1F
100
AcDbEntity
  8
0
100
AcDbLine
 10
-10.97286215397888
 20
100.0812391885329
 30
0.0
 11
-11.16484824216282
 21
100.2921574471146
 31
0.0
  0
LINE
  5
AB
330
1F
100
AcDbEntity
  8
0
100
AcDbLine
 10
-11.16484824216282
 20
100.2921574471146
 30
0.0
 11
-11.39242356886657
 21
100.4821431289182
 31
0.0
  0
LINE
  5
AC
330
1F
100
AcDbEntity
  8
0
100
AcDbLine
 10
-11.39242356886657
 20
100.4821431289182
 30
0.0
 11
-11.65168795480403
 21
100.6479872910721
 31
0.0
  0
LINE
  5
AD
330
1F
100
AcDbEntity
  8
0
100
AcDbLine
 10
-11.65168795480403
 20
100.6479872910721
 30
0.0
 11
-11.93821367798113
 21
100.7868936563163
 31
0.0
  0
LINE
  5
AE
330
1F
100
AcDbEntity
  8
0
100
AcDbLine
 10
-11.93821367798113
 20
100.7868936563163
 30
0.0
 11
-12.24712064747616
 21
100.8965236585387
 31
0.0
  0
LINE
  5
AF
330
1F
100
AcDbEntity
  8
0
100
AcDbLine
 10
-12.24712064747616
 20
100.8965236585387
 30
0.0
 11
-12.57315836880383
 21
100.9750338778647
 31
0.0
  0
LINE
  5
B0
330
1F
100
AcDbEntity
  8
0
100
AcDbLine
 10
-12.57315836880383
 20
100.9750338778647
 30
0.0
 11
-12.91079340369365
 21
101.0211053971378
 31
0.0
  0
LINE
  5
B1
330
1F
100
AcDbEntity
  8
0
100
AcDbLine
 10
-12.91079340369365
 20
101.0211053971378
 30
0.0
 11
-13.25430098880604
 21
101.0339647231164
 31
0.0
  0
LINE
  5
B2
330
1F
100
AcDbEntity
  8
0
100
AcDbLine
 10
-13.25430098880604
 20
101.0339647231164
 30
0.0
 11
-13.59785945164553
 21
101.0133960238688
 31
0.0
  0
LINE
  5
B3
330
1F
100
AcDbEntity
  8
0
100
AcDbLine
 10
-13.59785945164553
 20
101.0133960238688
 30
0.0
 11
-13.93564604533793
 21
100.9597445392059
 31
0.0
  0
LINE
  5
B4
330
1F
100
AcDbEntity
  8
0
100
AcDbLine
 10
-13.93564604533793
 20
100.9597445392059
 30
0.0
 11
-14.26193281534289
 21
100.8739111245453
 31
0.0
  0
LINE
  5
B5
330
1F
100
AcDbEntity
  8
0
100
AcDbLine
 10
-14.26193281534289
 20
100.8739111245453
 30
0.0
 11
-14.57118110975774
 21
100.757337991632
 31
0.0
  0
LINE
  5
B6
330
1F
100
AcDbEntity
  8
0
100
AcDbLine
 10
-75.78982615601343
 20
71.50079777704697
 30
0.0
 11
-75.92460492438462
 21
71.7507677119728
 31
0.0
  0
LINE
  5
B7
330
1F
100
AcDbEntity
  8
0
100
AcDbLine
 10
-75.92460492438462
 20
71.7507677119728
 30
0.0
 11
-76.01424328008565
 21
72.01509407509232
 31
0.0
  0
LINE
  5
B8
330
1F
100
AcDbEntity
  8
0
100
AcDbLine
 10
-76.01424328008565
 20
72.01509407509232
 30
0.0
 11
-76.05725898966655
 21
72.28922407023472
 31
0.0
  0
LINE
  5
B9
330
1F
100
AcDbEntity
  8
0
100
AcDbLine
 10
-76.05725898966655
 20
72.28922407023472
 30
0.0
 11
-76.05297466051935
 21
72.56844787413569
 31
0.0
  0
LINE
  5
BA
330
1F
100
AcDbEntity
  8
0
100
AcDbLine
 10
-76.05297466051935
 20
72.56844787413569
 30
0.0
 11
-76.00152531887002
 21
72.84798052202531
 31
0.0
  0
LINE
  5
BB
330
1F
100
AcDbEntity
  8
0
100
AcDbLine
 10
-76.00152531887002
 20
72.84798052202531
 30
0.0
 11
-75.90385188839713
 21
73.12304425579902
 31
0.0
  0
LINE
  5
BC
330
1F
100
AcDbEntity
  8
0
100
AcDbLine
 10
-75.90385188839713
 20
73.12304425579902
 30
0.0
 11
-75.76168096874646
 21
73.38894989729842
 31
0.0
  0
LINE
  5
BD
330
1F
100
AcDbEntity
  8
0
100
AcDbLine
 10
-75.76168096874646
 20
73.38894989729842
 30
0.0
 11
-75.57749153951075
 21
73.64117588397625
 31
0.0
  0
LINE
  5
BE
330
1F
100
AcDbEntity
  8
0
100
AcDbLine
 10
-75.57749153951075
 20
73.64117588397625
 30
0.0
 11
-75.3544694119969
 21
73.87544369966528
 31
0.0
  0
LINE
  5
BF
330
1F
100
AcDbEntity
  8
0
100
AcDbLine
 10
-75.3544694119969
 20
73.87544369966528
 30
0.0
 11
-75.09645041706578
 21
74.08778854398064
 31
0.0
  0
LINE
  5
C0
330
1F
100
AcDbEntity
  8
0
100
AcDbLine
 10
-75.09645041706578
 20
74.08778854398064
 30
0.0
 11
-74.80785345282952
 21
74.27462420499326
 31
0.0
  0
LINE
  5
C1
330
1F
100
AcDbEntity
  8
0
100
AcDbLine
 10
-74.80785345282952
 20
74.27462420499326
 30
0.0
 11
-74.4936046227088
 21
74.4328012266601
 31
0.0
  0
LINE
  5
C2
330
1F
100
AcDbEntity
  8
0
100
AcDbLine
 10
-80.49981109256058
 20
60.88761839959982
 30
0.0
 11
-80.8222800530262
 21
60.72263111444018
 31
0.0
  0
LINE
  5
C3
330
1F
100
AcDbEntity
  8
0
100
AcDbLine
 10
-80.8222800530262
 20
60.72263111444018
 30
0.0
 11
-81.1188309679409
 21
60.52774904934717
 31
0.0
  0
LINE
  5
C4
330
1F
100
AcDbEntity
  8
0
100
AcDbLine
 10
-81.1188309679409
 20
60.52774904934717
 30
0.0
 11
-81.3844026213056
 21
60.30625624257372
 31
0.0
  0
LINE
  5
C5
330
1F
100
AcDbEntity
  8
0
100
AcDbLine
 10
-81.3844026213056
 20
60.30625624257372
 30
0.0
 11
-81.6144471779849
 21
60.06189235294232
 31
0.0
  0
LINE
  5
C6
330
1F
100
AcDbEntity
  8
0
100
AcDbLine
 10
-81.6144471779849
 20
60.06189235294232
 30
0.0
 11
-81.8050082303089
 21
59.79879207537899
 31
0.0
  0
LINE
  5
C7
330
1F
100
AcDbEntity
  8
0
100
AcDbLine
 10
-81.8050082303089
 20
59.79879207537899
 30
0.0
 11
-81.95278984004585
 21
59.52141755528551
 31
0.0
  0
LINE
  5
C8
330
1F
100
AcDbEntity
  8
0
100
AcDbLine
 10
-81.95278984004585
 20
59.52141755528551
 30
0.0
 11
-82.05521530799656
 21
59.23448474352368
 31
0.0
  0
LINE
  5
C9
330
1F
100
AcDbEntity
  8
0
100
AcDbLine
 10
-82.05521530799656
 20
59.23448474352368
 30
0.0
 11
-82.11047450929898
 21
58.94288476687376
 31
0.0
  0
LINE
  5
CA
330
1F
100
AcDbEntity
  8
0
100
AcDbLine
 10
-82.11047450929898
 20
58.94288476687376
 30
0.0
 11
-82.11755876805815
 21
58.65160151629043
 31
0.0
  0
LINE
  5
CB
330
1F
100
AcDbEntity
  8
0
100
AcDbLine
 10
-82.11755876805815
 20
58.65160151629043
 30
0.0
 11
-82.07628241202363
 21
58.36562677229675
 31
0.0
  0
LINE
  5
CC
330
1F
100
AcDbEntity
  8
0
100
AcDbLine
 10
-82.07628241202363
 20
58.36562677229675
 30
0.0
 11
-81.98729034721357
 21
58.08987428804655
 31
0.0
  0
LINE
  5
CD
330
1F
100
AcDbEntity
  8
0
100
AcDbLine
 10
-81.98729034721357
 20
58.08987428804655
 30
0.0
 11
-81.85205122246626
 21
57.8290943302917
 31
0.0
  0
LINE
  5
CE
330
1F
100
AcDbEntity
  8
0
100
AcDbLine
 10
-73.6955355965607
 20
66.70007819615809
 30
0.0
 11
-74.03642589263575
 21
65.40287137484307
 31
0.0
  0
LINE
  5
CF
330
1F
100
AcDbEntity
  8
0
100
AcDbLine
 10
-74.03642589263575
 20
65.40287137484307
 30
0.0
 11
-74.79154432197622
 21
64.18381127415817
 31
0.0
  0
LINE
  5
D0
330
1F
100
AcDbEntity
  8
0
100
AcDbLine
 10
9.830771827238856
 20
-67.35201264593377
 30
0.0
 11
11.82844754306791
 21
-67.5719055266016
 31
0.0
  0
LINE
  5
D1
330
1F
100
AcDbEntity
  8
0
100
AcDbLine
 10
11.82844754306791
 20
-67.5719055266016
 30
0.0
 11
13.70823638026673
 21
-68.27458475705254
 31
0.0
  0
LINE
  5
D2
330
1F
100
AcDbEntity
  8
0
100
AcDbLine
 10
88.71951761846658
 20
-25.30925149826127
 30
0.0
 11
88.73499172618016
 21
-23.62200136452815
 31
0.0
  0
LINE
  5
D3
330
1F
100
AcDbEntity
  8
0
100
AcDbLine
 10
88.73499172618016
 20
-23.62200136452815
 30
0.0
 11
89.24219139536238
 21
-22.04956667155471
 31
0.0
  0
LINE
  5
D4
330
1F
100
AcDbEntity
  8
0
100
AcDbLine
 10
-4.017516180177503
 20
95.77016316514636
 30
0.0
 11
-5.592329672957788
 21
95.90742291375835
 31
0.0
  0
LINE
  5
D5
330
1F
100
AcDbEntity
  8
0
100
AcDbLine
 10
-5.592329672957788
 20
95.90742291375835
 30
0.0
 11
-7.062315786951745
 21
96.34511417297652
 31
0.0
  0
LINE
  5
D6
330
1F
100
AcDbEntity
  8
0
100
AcDbLine
 10
-69.65710536321723
 20
63.57986144324425
 30
0.0
 11
-68.21879153219139
 21
64.22466422673297
 31
0.0
  0
LINE
  5
D7
330
1F
100
AcDbEntity
  8
0
100
AcDbLine
 10
-8.385558227110893
 20
91.04818114496263
 30
0.0
 11
-7.066751431611472
 21
91.6394083683116
 31
0.0
  0
LINE
  5
D8
330
1F
100
AcDbEntity
  8
0
100
AcDbLine
 10
80.34216935747335
 20
-22.93075833407346
 30
0.0
 11
81.8031283748831
 21
-22.10205686596152
 31
0.0
  0
LINE
  5
D9
330
1F
100
AcDbEntity
  8
0
100
AcDbLine
 10
11.89573076910131
 20
-61.75571062177456
 30
0.0
 11
13.51537884405985
 21
-60.836995776561
 31
0.0
  0
LINE
  5
DA
330
1F
100
AcDbEntity
  8
0
100
AcDbLine
 10
14.41289607563533
 20
-59.27779339361454
 30
0.0
 11
13.94878403624227
 21
-59.10645836311699
 31
0.0
  0
LINE
  5
DB
330
1F
100
AcDbEntity
  8
0
100
AcDbLine
 10
13.94878403624227
 20
-59.10645836311699
 30
0.0
 11
13.45538168737678
 21
-59.05266831997095
 31
0.0
  0
LINE
  5
DC
330
1F
100
AcDbEntity
  8
0
100
AcDbLine
 10
13.45538168737678
 20
-59.05266831997095
 30
0.0
 11
12.96600989941029
 21
-59.12030156925756
 31
0.0
  0
LINE
  5
DD
330
1F
100
AcDbEntity
  8
0
100
AcDbLine
 10
12.74001933314562
 20
-59.21251204570878
 30
0.0
 11
12.51396543772026
 21
-59.30472541481741
 31
0.0
  0
LINE
  5
DE
330
1F
100
AcDbEntity
  8
0
100
AcDbLine
 10
12.12971355675106
 20
-59.59342787169214
 30
0.0
 11
11.83941385601835
 21
-59.96713462690185
 31
0.0
  0
LINE
  5
DF
330
1F
100
AcDbEntity
  8
0
100
AcDbLine
 10
11.83941385601835
 20
-59.96713462690185
 30
0.0
 11
11.66306980042872
 21
-60.40049003650638
 31
0.0
  0
LINE
  5
E0
330
1F
100
AcDbEntity
  8
0
100
AcDbLine
 10
11.66306980042872
 20
-60.40049003650638
 30
0.0
 11
11.61257905145296
 21
-60.86405630999842
 31
0.0
  0
LINE
  5
E1
330
1F
100
AcDbEntity
  8
0
100
AcDbLine
 10
11.61257905145296
 20
-60.86405630999842
 30
0.0
 11
11.6918858270872
 21
-61.32637353926476
 31
0.0
  0
LINE
  5
E2
330
1F
100
AcDbEntity
  8
0
100
AcDbLine
 10
11.79377995529287
 20
-61.54098238506911
 30
0.0
 11
11.89573076910131
 21
-61.75571062177456
 31
0.0
  0
LINE
  5
E3
330
1F
100
AcDbEntity
  8
0
100
AcDbLine
 10
14.8162065156829
 20
-59.55541206188168
 30
0.0
 11
14.41289607563533
 21
-59.27779339361454
 31
0.0
  0
LINE
  5
E4
330
1F
100
AcDbEntity
  8
0
100
AcDbLine
 10
82.52452373001998
 20
-20.69539426176981
 30
0.0
 11
82.06926930170155
 21
-20.54080384735218
 31
0.0
  0
LINE
  5
E5
330
1F
100
AcDbEntity
  8
0
100
AcDbLine
 10
82.06926930170155
 20
-20.54080384735218
 30
0.0
 11
81.5960696115595
 21
-20.49227000723096
 31
0.0
  0
LINE
  5
E6
330
1F
100
AcDbEntity
  8
0
100
AcDbLine
 10
81.5960696115595
 20
-20.49227000723096
 30
0.0
 11
81.13691262887805
 21
-20.55329428154734
 31
0.0
  0
LINE
  5
E7
330
1F
100
AcDbEntity
  8
0
100
AcDbLine
 10
80.93000841051396
 20
-20.63649328329766
 30
0.0
 11
80.72304676550277
 21
-20.7196938959329
 31
0.0
  0
LINE
  5
E8
330
1F
100
AcDbEntity
  8
0
100
AcDbLine
 10
80.38236393081706
 20
-20.98017267059451
 30
0.0
 11
80.13809107262006
 21
-21.31733114038952
 31
0.0
  0
LINE
  5
E9
330
1F
100
AcDbEntity
  8
0
100
AcDbLine
 10
80.13809107262006
 20
-21.31733114038952
 30
0.0
 11
80.0070892758943
 21
-21.70828411580115
 31
0.0
  0
LINE
  5
EA
330
1F
100
AcDbEntity
  8
0
100
AcDbLine
 10
80.0070892758943
 20
-21.70828411580115
 30
0.0
 11
79.99817157734897
 21
-22.12646749344392
 31
0.0
  0
LINE
  5
EB
330
1F
100
AcDbEntity
  8
0
100
AcDbLine
 10
79.99817157734897
 20
-22.12646749344392
 30
0.0
 11
80.1124240195428
 21
-22.54349896337852
 31
0.0
  0
LINE
  5
EC
330
1F
100
AcDbEntity
  8
0
100
AcDbLine
 10
80.22726635036398
 20
-22.73707751066725
 30
0.0
 11
80.34216935747335
 21
-22.93075833407346
 31
0.0
  0
LINE
  5
ED
330
1F
100
AcDbEntity
  8
0
100
AcDbLine
 10
82.93094560577383
 20
-20.94587386343045
 30
0.0
 11
82.52452373001998
 21
-20.69539426176981
 31
0.0
  0
LINE
  5
EE
330
1F
100
AcDbEntity
  8
0
100
AcDbLine
 10
-6.312986778494112
 20
92.64345076357624
 30
0.0
 11
-6.68180700855044
 21
92.75383026270916
 31
0.0
  0
LINE
  5
EF
330
1F
100
AcDbEntity
  8
0
100
AcDbLine
 10
-6.68180700855044
 20
92.75383026270916
 30
0.0
 11
-7.076688420717185
 21
92.7884855272068
 31
0.0
  0
LINE
  5
F0
330
1F
100
AcDbEntity
  8
0
100
AcDbLine
 10
-7.076688420717185
 20
92.7884855272068
 30
0.0
 11
-7.470933852384416
 21
92.74491166696974
 31
0.0
  0
LINE
  5
F1
330
1F
100
AcDbEntity
  8
0
100
AcDbLine
 10
-7.65428764932834
 20
92.68550594929515
 30
0.0
 11
-7.837683666096702
 21
92.62610117743317
 31
0.0
  0
LINE
  5
F2
330
1F
100
AcDbEntity
  8
0
100
AcDbLine
 10
-8.152194267750017
 20
92.44013434165988
 30
0.0
 11
-8.393053341455051
 21
92.19945312068728
 31
0.0
  0
LINE
  5
F3
330
1F
100
AcDbEntity
  8
0
100
AcDbLine
 10
-8.393053341455051
 20
92.19945312068728
 30
0.0
 11
-8.543682459102211
 21
91.92041366512687
 31
0.0
  0
LINE
  5
F4
330
1F
100
AcDbEntity
  8
0
100
AcDbLine
 10
-8.543682459102211
 20
91.92041366512687
 30
0.0
 11
-8.593940652405722
 21
91.62198992689143
 31
0.0
  0
LINE
  5
F5
330
1F
100
AcDbEntity
  8
0
100
AcDbLine
 10
-8.593940652405722
 20
91.62198992689143
 30
0.0
 11
-8.540036892646105
 21
91.32444089481838
 31
0.0
  0
LINE
  5
F6
330
1F
100
AcDbEntity
  8
0
100
AcDbLine
 10
-8.462814789431222
 20
91.1863418321189
 30
0.0
 11
-8.385558227110893
 21
91.04818114496263
 31
0.0
  0
LINE
  5
F7
330
1F
100
AcDbEntity
  8
0
100
AcDbLine
 10
-5.995303172469588
 20
92.46462053931205
 30
0.0
 11
-6.312986778494112
 21
92.64345076357624
 31
0.0
  0
LINE
  5
F8
330
1F
100
AcDbEntity
  8
0
100
AcDbLine
 10
-67.32807408947163
 20
65.3195654154751
 30
0.0
 11
-67.70182016591225
 21
65.43992388139834
 31
0.0
  0
LINE
  5
F9
330
1F
100
AcDbEntity
  8
0
100
AcDbLine
 10
-67.70182016591225
 20
65.43992388139834
 30
0.0
 11
-68.11058757324965
 21
65.47771179667058
 31
0.0
  0
LINE
  5
FA
330
1F
100
AcDbEntity
  8
0
100
AcDbLine
 10
-68.11058757324965
 20
65.47771179667058
 30
0.0
 11
-68.52676350110873
 21
65.43019906191178
 31
0.0
  0
LINE
  5
FB
330
1F
100
AcDbEntity
  8
0
100
AcDbLine
 10
-68.72435810799637
 20
65.36542286573197
 30
0.0
 11
-68.92199838489628
 21
65.3006471499954
 31
0.0
  0
LINE
  5
FC
330
1F
100
AcDbEntity
  8
0
100
AcDbLine
 10
-69.26962521951693
 20
65.09786299408076
 30
0.0
 11
-69.54600182161406
 21
64.83540851454373
 31
0.0
  0
LINE
  5
FD
330
1F
100
AcDbEntity
  8
0
100
AcDbLine
 10
-69.54600182161406
 20
64.83540851454373
 30
0.0
 11
-69.73212538990889
 21
64.53111439506269
 31
0.0
  0
LINE
  5
FE
330
1F
100
AcDbEntity
  8
0
100
AcDbLine
 10
-69.73212538990889
 20
64.53111439506269
 30
0.0
 11
-69.81544139032574
 21
64.20566814936522
 31
0.0
  0
LINE
  5
FF
330
1F
100
AcDbEntity
  8
0
100
AcDbLine
 10
-69.81544139032574
 20
64.20566814936522
 30
0.0
 11
-69.78989134622726
 21
63.88116196843659
 31
0.0
  0
LINE
  5
100
330
1F
100
AcDbEntity
  8
0
100
AcDbLine
 10
-69.72351382138645
 20
63.73054680076483
 30
0.0
 11
-69.65710536321723
 21
63.57986144324425
 31
0.0
  0
LINE
  5
101
330
1F
100
AcDbEntity
  8
0
100
AcDbLine
 10
-67.01477896366778
 20
65.12456383193577
 30
0.0
 11
-67.32807408947163
 21
65.3195654154751
 31
0.0
  0
LINE
  5
102
330
1F
100
AcDbEntity
  8
0
100
AcDbLine
 10
-69.11253765425172
 20
63.12604007888935
 30
0.0
 11
-68.737714703086
 21
63.00481640808491
 31
0.0
  0
LINE
  5
103
330
1F
100
AcDbEntity
  8
0
100
AcDbLine
 10
-68.737714703086
 20
63.00481640808491
 30
0.0
 11
-68.32741676301069
 21
62.96673815043007
 31
0.0
  0
LINE
  5
104
330
1F
100
AcDbEntity
  8
0
100
AcDbLine
 10
-68.32741676301069
 20
62.96673815043007
 30
0.0
 11
-67.90966616684004
 21
63.01461450149821
 31
0.0
  0
LINE
  5
105
330
1F
100
AcDbEntity
  8
0
100
AcDbLine
 10
-67.71143363980806
 20
63.07986366690405
 30
0.0
 11
-67.51323503925894
 21
63.14508609851622
 31
0.0
  0
LINE
  5
106
330
1F
100
AcDbEntity
  8
0
100
AcDbLine
 10
-67.16511019493485
 20
63.34909918160064
 30
0.0
 11
-66.88906770704862
 21
63.61276328153672
 31
0.0
  0
LINE
  5
107
330
1F
100
AcDbEntity
  8
0
100
AcDbLine
 10
-66.88906770704862
 20
63.61276328153672
 30
0.0
 11
-66.70402095849653
 21
63.91792312335873
 31
0.0
  0
LINE
  5
108
330
1F
100
AcDbEntity
  8
0
100
AcDbLine
 10
-66.70402095849653
 20
63.91792312335873
 30
0.0
 11
-66.62223554091517
 21
64.24365918732356
 31
0.0
  0
LINE
  5
109
330
1F
100
AcDbEntity
  8
0
100
AcDbLine
 10
-66.62223554091517
 20
64.24365918732356
 30
0.0
 11
-66.649360256137
 21
64.5678016790765
 31
0.0
  0
LINE
  5
10A
330
1F
100
AcDbEntity
  8
0
100
AcDbLine
 10
-66.7163669095869
 20
64.71802714926325
 30
0.0
 11
-66.78334239958326
 21
64.86818275259047
 31
0.0
  0
LINE
  5
10B
330
1F
100
AcDbEntity
  8
0
100
AcDbLine
 10
-69.42616689707798
 20
63.3222512099608
 30
0.0
 11
-69.11253765425172
 21
63.12604007888935
 31
0.0
  0
LINE
  5
10C
330
1F
100
AcDbEntity
  8
0
100
AcDbLine
 10
-7.822970176134387
 20
90.63209703253244
 30
0.0
 11
-7.453087427871567
 21
90.52095784134316
 31
0.0
  0
LINE
  5
10D
330
1F
100
AcDbEntity
  8
0
100
AcDbLine
 10
-7.453087427871567
 20
90.52095784134316
 30
0.0
 11
-7.056777399073599
 21
90.48604764210111
 31
0.0
  0
LINE
  5
10E
330
1F
100
AcDbEntity
  8
0
100
AcDbLine
 10
-7.056777399073599
 20
90.48604764210111
 30
0.0
 11
-6.66111962742406
 21
90.52994077515841
 31
0.0
  0
LINE
  5
10F
330
1F
100
AcDbEntity
  8
0
100
AcDbLine
 10
-6.477221930684638
 20
90.58976178294026
 30
0.0
 11
-6.293352722504109
 21
90.64955879305079
 31
0.0
  0
LINE
  5
110
330
1F
100
AcDbEntity
  8
0
100
AcDbLine
 10
-5.978492109729083
 20
90.83660468694067
 30
0.0
 11
-5.738044365924244
 21
91.0783480139083
 31
0.0
  0
LINE
  5
111
330
1F
100
AcDbEntity
  8
0
100
AcDbLine
 10
-5.738044365924244
 20
91.0783480139083
 30
0.0
 11
-5.588477760992736
 21
91.35814761621525
 31
0.0
  0
LINE
  5
112
330
1F
100
AcDbEntity
  8
0
100
AcDbLine
 10
-5.588477760992736
 20
91.35814761621525
 30
0.0
 11
-5.539648185174507
 21
91.65682582914648
 31
0.0
  0
LINE
  5
113
330
1F
100
AcDbEntity
  8
0
100
AcDbLine
 10
-5.539648185174507
 20
91.65682582914648
 30
0.0
 11
-5.594964281545654
 21
91.95405552423378
 31
0.0
  0
LINE
  5
114
330
1F
100
AcDbEntity
  8
0
100
AcDbLine
 10
-5.672729449198558
 20
92.09181241412422
 30
0.0
 11
-5.750459982085947
 21
92.2295079503556
 31
0.0
  0
LINE
  5
115
330
1F
100
AcDbEntity
  8
0
100
AcDbLine
 10
-8.14106510868799
 20
90.81198929862566
 30
0.0
 11
-7.822970176134387
 21
90.63209703253244
 31
0.0
  0
LINE
  5
116
330
1F
100
AcDbEntity
  8
0
100
AcDbLine
 10
81.0789517572248
 20
-23.51414270715282
 30
0.0
 11
81.53584812285605
 21
-23.66999346737171
 31
0.0
  0
LINE
  5
117
330
1F
100
AcDbEntity
  8
0
100
AcDbLine
 10
81.53584812285605
 20
-23.66999346737171
 30
0.0
 11
82.0111012147055
 21
-23.71895024997055
 31
0.0
  0
LINE
  5
118
330
1F
100
AcDbEntity
  8
0
100
AcDbLine
 10
82.0111012147055
 20
-23.71895024997055
 30
0.0
 11
82.47217321645553
 21
-23.65739629487202
 31
0.0
  0
LINE
  5
119
330
1F
100
AcDbEntity
  8
0
100
AcDbLine
 10
82.67975607934956
 20
-23.57350831770028
 30
0.0
 11
82.88730191656123
 21
-23.48965697329087
 31
0.0
  0
LINE
  5
11A
330
1F
100
AcDbEntity
  8
0
100
AcDbLine
 10
83.2282580774331
 20
-23.2273880187199
 30
0.0
 11
83.47174071698085
 21
-22.88846749416265
 31
0.0
  0
LINE
  5
11B
330
1F
100
AcDbEntity
  8
0
100
AcDbLine
 10
83.47174071698085
 20
-22.88846749416265
 30
0.0
 11
83.6011004930148
 21
-22.49625342107382
 31
0.0
  0
LINE
  5
11C
330
1F
100
AcDbEntity
  8
0
100
AcDbLine
 10
83.6011004930148
 20
-22.49625342107382
 30
0.0
 11
83.60796488384936
 21
-22.07764786528777
 31
0.0
  0
LINE
  5
11D
330
1F
100
AcDbEntity
  8
0
100
AcDbLine
 10
83.60796488384936
 20
-22.07764786528777
 30
0.0
 11
83.4917974423818
 21
-21.66114618122506
 31
0.0
  0
LINE
  5
11E
330
1F
100
AcDbEntity
  8
0
100
AcDbLine
 10
83.37626292141545
 20
-21.46813530534389
 30
0.0
 11
83.26078930485676
 21
-21.275226175789
 31
0.0
  0
LINE
  5
11F
330
1F
100
AcDbEntity
  8
0
100
AcDbLine
 10
80.67173968261733
 20
-23.26190115582077
 30
0.0
 11
81.0789517572248
 21
-23.51414270715282
 31
0.0
  0
LINE
  5
120
330
1F
100
AcDbEntity
  8
0
100
AcDbLine
 10
12.61421798447953
 20
-62.40252801398598
 30
0.0
 11
13.08001995297666
 21
-62.57533408649504
 31
0.0
  0
LINE
  5
121
330
1F
100
AcDbEntity
  8
0
100
AcDbLine
 10
13.08001995297666
 20
-62.57533408649504
 30
0.0
 11
13.57565490080589
 21
-62.62961777688452
 31
0.0
  0
LINE
  5
122
330
1F
100
AcDbEntity
  8
0
100
AcDbLine
 10
13.57565490080589
 20
-62.62961777688452
 30
0.0
 11
14.06720432914049
 21
-62.56136629824098
 31
0.0
  0
LINE
  5
123
330
1F
100
AcDbEntity
  8
0
100
AcDbLine
 10
14.29401840943279
 20
-62.4683516680577
 30
0.0
 11
14.5207871612834
 21
-62.37537878220029
 31
0.0
  0
LINE
  5
124
330
1F
100
AcDbEntity
  8
0
100
AcDbLine
 10
14.90552703936694
 20
-62.08458687560108
 30
0.0
 11
15.19513283412159
 21
-61.70882349812182
 31
0.0
  0
LINE
  5
125
330
1F
100
AcDbEntity
  8
0
100
AcDbLine
 10
15.19513283412159
 20
-61.70882349812182
 30
0.0
 11
15.36978694596713
 21
-61.27399617002656
 31
0.0
  0
LINE
  5
126
330
1F
100
AcDbEntity
  8
0
100
AcDbLine
 10
15.36978694596713
 20
-61.27399617002656
 30
0.0
 11
15.41804512223994
 21
-60.80993714188957
 31
0.0
  0
LINE
  5
127
330
1F
100
AcDbEntity
  8
0
100
AcDbLine
 10
15.41804512223994
 20
-60.80993714188957
 30
0.0
 11
15.33656071828041
 21
-60.34823826403577
 31
0.0
  0
LINE
  5
128
330
1F
100
AcDbEntity
  8
0
100
AcDbLine
 10
15.23384059584906
 20
-60.13429198872895
 30
0.0
 11
15.13117748222743
 21
-59.92046445181734
 31
0.0
  0
LINE
  5
129
330
1F
100
AcDbEntity
  8
0
100
AcDbLine
 10
12.21021365049758
 20
-62.12285284550587
 30
0.0
 11
12.61421798447953
 21
-62.40252801398598
 31
0.0
  0
LINE
  5
12A
330
1F
100
AcDbEntity
  8
0
100
AcDbLine
 10
81.8031283748831
 20
-22.10205686596152
 30
0.0
 11
83.26078930485676
 21
-21.275226175789
 31
0.0
  0
LINE
  5
12B
330
1F
100
AcDbEntity
  8
0
100
AcDbLine
 10
81.38686976825863
 20
-21.56930196703584
 30
0.0
 11
81.8031283748831
 21
-22.10205686596152
 31
0.0
  0
LINE
  5
12C
330
1F
100
AcDbEntity
  8
0
100
AcDbLine
 10
81.8031283748831
 20
-22.10205686596152
 30
0.0
 11
82.23042274590108
 21
-22.64893605553359
 31
0.0
  0
LINE
  5
12D
330
1F
100
AcDbEntity
  8
0
100
AcDbLine
 10
13.51537884405985
 20
-60.836995776561
 30
0.0
 11
15.13117748222743
 21
-59.92046445181734
 31
0.0
  0
LINE
  5
12E
330
1F
100
AcDbEntity
  8
0
100
AcDbLine
 10
13.51537884405985
 20
-60.836995776561
 30
0.0
 11
13.12941478509685
 21
-60.24643119759336
 31
0.0
  0
LINE
  5
12F
330
1F
100
AcDbEntity
  8
0
100
AcDbLine
 10
13.51537884405985
 20
-60.836995776561
 30
0.0
 11
13.95469301491387
 21
-61.50919149613656
 31
0.0
  0
LINE
  5
130
330
1F
100
AcDbEntity
  8
0
100
AcDbLine
 10
-68.21879153219139
 20
64.22466422673297
 30
0.0
 11
-66.78334239958326
 21
64.86818275259047
 31
0.0
  0
LINE
  5
131
330
1F
100
AcDbEntity
  8
0
100
AcDbLine
 10
-68.21879153219139
 20
64.22466422673297
 30
0.0
 11
-68.52669187275228
 21
64.69578331350984
 31
0.0
  0
LINE
  5
132
330
1F
100
AcDbEntity
  8
0
100
AcDbLine
 10
-68.21879153219139
 20
64.22466422673297
 30
0.0
 11
-67.9104415787089
 21
63.75285718609204
 31
0.0
  0
LINE
  5
133
330
1F
100
AcDbEntity
  8
0
100
AcDbLine
 10
-7.066751431611472
 20
91.6394083683116
 30
0.0
 11
-5.750459982085947
 21
92.2295079503556
 31
0.0
  0
LINE
  5
134
330
1F
100
AcDbEntity
  8
0
100
AcDbLine
 10
-7.066751431611472
 20
91.6394083683116
 30
0.0
 11
-7.404291870629981
 21
92.07141462502514
 31
0.0
  0
LINE
  5
135
330
1F
100
AcDbEntity
  8
0
100
AcDbLine
 10
-7.066751431611472
 20
91.6394083683116
 30
0.0
 11
-6.728739023102239
 21
91.20679805427817
 31
0.0
  0
ENDSEC
  0
SECTION
  2
OBJECTS
  0
DICTIONARY
  5
C
330
0
100
AcDbDictionary
  3
ACAD_GROUP
350
D
  3
ACAD_LAYOUT
350
1A
  3
ACAD_MATERIAL
350
3B
  3
ACAD_MLEADERSTYLE
350
158
  3
ACAD_MLINESTYLE
350
17
  3
ACAD_PLOTSETTINGS
350
19
  3
ACAD_VISUALSTYLE
350
2A
  3
ACDBHEADERROUNDTRIPXREC
350
136
  3
ACDBVARIABLEDICTIONARY
350
156
  0
DICTIONARY
  5
D
102
{ACAD_REACTORS
330
C
102
}
330
C
100
AcDbDictionary
  0
DICTIONARY
  5
1A
102
{ACAD_REACTORS
330
C
102
}
330
C
100
AcDbDictionary
  0
DICTIONARY
  5
3B
102
{ACAD_REACTORS
330
C
102
}
330
C
100
AcDbDictionary
  3
BYBLOCK
350
3D
  3
BYLAYER
350
3C
  3
GLOBAL
350
3E
  0
DICTIONARY
  5
158
102
{ACAD_REACTORS
330
C
102
}
330
C
100
AcDbDictionary
  0
DICTIONARY
  5
17
102
{ACAD_REACTORS
330
C
102
}
330
C
100
AcDbDictionary
  3
STANDARD
350
18
  0
DICTIONARY
  5
19
102
{ACAD_REACTORS
330
C
102
}
330
C
100
AcDbDictionary
  0
DICTIONARY
  5
2A
102
{ACAD_REACTORS
330
C
102
}
330
C
100
AcDbDictionary
  3
2DWIREFRAME
350
2F
  3
3D_HIDDEN
350
31
  3
3DWIREFRAME
350
30
  3
BASIC
350
32
  3
BRIGHTEN
350
36
  3
COLORCHANGE
350
3A
  3
CONCEPTUAL
350
34
  3
DIM
350
35
  3
FACEPATTERN
350
39
  3
FLAT
350
2B
  3
FLATWITHEDGES
350
2C
  3
GOURAUD
350
2D
  3
GOURAUDWITHEDGES
350
2E
  3
LINEPATTERN
350
38
  3
REALISTIC
350
33
  3
THICKEN
350
37
  0
DICTIONARY
  5
136
102
{ACAD_REACTORS
330
C
102
}
330
C
100
AcDbDictionary
  3
CEPSNTYPE
350
13F
  3
DIMSTYLEDATA
350
155
  3
FINGERPRINTGUID
350
140
  3
HYPERLINKBASE
350
139
  3
INSUNITS
350
13E
  3
LAYOUTDICT
350
13B
  3
LWETCUNION
350
13D
  3
PLOTSETDICT
350
13C
  3
PSVPSCALE
350
142
  3
PUCSBASE
350
145
  3
PUCSORGBACK
350
14B
  3
PUCSORGBOTTOM
350
147
  3
PUCSORGFRONT
350
14A
  3
PUCSORGLEFT
350
148
  3
PUCSORGRIGHT
350
149
  3
PUCSORGTOP
350
146
  3
PUCSORTHOREF
350
143
  3
PUCSORTHOVIEW
350
144
  3
STYLESHEET
350
13A
  3
TSTACKALIGN
350
137
  3
TSTACKSIZE
350
138
  3
UCSBASE
350
14E
  3
UCSORGBACK
350
154
  3
UCSORGBOTTOM
350
150
  3
UCSORGFRONT
350
153
  3
UCSORGLEFT
350
151
  3
UCSORGRIGHT
350
152
  3
UCSORGTOP
350
14F
  3
UCSORTHOREF
350
14C
  3
UCSORTHOVIEW
350
14D
  3
VERSIONGUID
350
141
  0
DICTIONARY
  5
156
102
{ACAD_REACTORS
330
C
102
}
330
C
100
AcDbDictionary
  3
DIMASSOC
350
159
  3
HIDETEXT
350
15A
  0
MATERIAL
  5
3D
102
{ACAD_REACTORS
330
3B
102
}
102
{ACAD_XDICTIONARY
360
15D
102
}
330
3B
100
AcDbMaterial
  1
ByBlock
  0
MATERIAL
  5
3C
102
{ACAD_REACTORS
330
3B
102
}
102
{ACAD_XDICTIONARY
360
15B
102
}
330
3B
100
AcDbMaterial
  1
ByLayer
  0
MATERIAL
  5
3E
102
{ACAD_REACTORS
330
3B
102
}
102
{ACAD_XDICTIONARY
360
15F
102
}
330
3B
100
AcDbMaterial
  1
Global
  0
MLINESTYLE
  5
18
102
{ACAD_REACTORS
330
17
102
}
330
17
100
AcDbMlineStyle
  2
Standard
 70
     0
  3

 62
   256
 51
90.0
 52
90.0
 71
     2
 49
0.5
 62
   256
  6
BYLAYER
 49
-0.5
 62
   256
  6
BYLAYER
  0
ACAD_PROXY_OBJECT
  5
2F
102
{ACAD_REACTORS
330
2A
102
}
330
2A
100
AcDbProxyObject
 90
      499
 91
      501
 93
      436
310
42CC9915DA5C99599C985B595049028333333333333E3BF0000000000000FB0107901411070040501600405405064090741402480A0340
1001
ACAD
1000
AcDbSavedByObjectVersion
1070
     0
  0
ACAD_PROXY_OBJECT
  5
31
102
{ACAD_REACTORS
330
2A
102
}
330
2A
100
AcDbProxyObject
 90
      499
 91
      501
 93
      500
310
424CD108121A5919195B90640502408333333333333E3BF0000000000000FB01079024090700405020000000000001110200405405064090740C02480A0340
1001
ACAD
1000
AcDbSavedByObjectVersion
1070
     0
  0
ACAD_PROXY_OBJECT
  5
30
102
{ACAD_REACTORS
330
2A
102
}
330
2A
100
AcDbProxyObject
 90
      499
 91
      501
 93
      436
310
42CCD915DA5C99599C985B595059028333333333333E3BF0000000000000FB0107901411070040501600405405064090741402480A0340
1001
ACAD
1000
AcDbSavedByObjectVersion
1070
     0
  0
ACAD_PROXY_OBJECT
  5
32
102
{ACAD_REACTORS
330
2A
102
}
330
2A
100
AcDbProxyObject
 90
      499
 91
      501
 93
      388
310
4150985CDA58D07406404333333333333E3BF0000000000000FB0107A41107004050150841D405064090741402480A0350
1001
ACAD
1000
AcDbSavedByObjectVersion
1070
     0
  0
ACAD_PROXY_OBJECT
  5
36
102
{ACAD_REACTORS
330
2A
102
}
330
2A
100
AcDbProxyObject
 90
      499
 91
      501
 93
      428
310
42109C9A59DA1D195B90C409028333333333333E3BF0000000000000FB010790141107004050150841D405064090741402480A029950
1001
ACAD
1000
AcDbSavedByObjectVersion
1070
     0
  0
ACAD_PROXY_OBJECT
  5
3A
102
{ACAD_REACTORS
330
2A
102
}
330
2A
100
AcDbProxyObject
 90
      499
 91
      501
 93
      452
310
42D0DBDB1BDC90DA185B99D95104090240C333333333333E3BF0000000000000FB0108901411070040501508421405064090741402480A0350
1001
ACAD
1000
AcDbSavedByObjectVersion
1070
     0
  0
ACAD_PROXY_OBJECT
  5
34
102
{ACAD_REACTORS
330
2A
102
}
330
2A
100
AcDbProxyObject
 90
      499
 91
      501
 93
      500
310
4290DBDB98D95C1D1D585B10940D028333333333333E3BF0000000000000FB0107902409070040501000000000000111010841D405064090740C02480A0340
1001
ACAD
1000
AcDbSavedByObjectVersion
1070
     0
  0
ACAD_PROXY_OBJECT
  5
35
102
{ACAD_REACTORS
330
2A
102
}
330
2A
100
AcDbProxyObject
 90
      499
 91
      501
 93
      412
310
40D11A5B50B409028333333333333E3BF0000000000000FB010790141107004050150841D405064090741402480A02677FFFFFD0
1001
ACAD
1000
AcDbSavedByObjectVersion
1070
     0
  0
ACAD_PROXY_OBJECT
  5
39
102
{ACAD_REACTORS
330
2A
102
}
330
2A
100
AcDbProxyObject
 90
      499
 91
      501
 93
      444
310
42D19858D95C185D1D195C9B90F409028333333333333E3BF0000000000000FB010790141107004050150841D405064090741402480A0350
1001
ACAD
1000
AcDbSavedByObjectVersion
1070
     0
  0
ACAD_PROXY_OBJECT
  5
2B
102
{ACAD_REACTORS
330
2A
102
}
330
2A
100
AcDbProxyObject
 90
      499
 91
      501
 93
      388
310
41119B185D240901404333333333333E3BF0000000000000F9010740A41107004050150841D405064090741402480A1B50
1001
ACAD
1000
AcDbSavedByObjectVersion
1070
     0
  0
ACAD_PROXY_OBJECT
  5
2C
102
{ACAD_REACTORS
330
2A
102
}
330
2A
100
AcDbProxyObject
 90
      499
 91
      501
 93
      476
310
43519B185D15DA5D1A115919D95CD0140901404333333333333E3BF0000000000000F9010740901411070040501600405405064090741402480A1B50
1001
ACAD
1000
AcDbSavedByObjectVersion
1070
     0
  0
ACAD_PROXY_OBJECT
  5
2D
102
{ACAD_REACTORS
330
2A
102
}
330
2A
100
AcDbProxyObject
 90
      499
 91
      501
 93
      412
310
41D1DBDD5C985D5910240902404333333333333E3BF0000000000000F9010740A411070040501641D405064090741402480A1B50
1001
ACAD
1000
AcDbSavedByObjectVersion
1070
     0
  0
ACAD_PROXY_OBJECT
  5
2E
102
{ACAD_REACTORS
330
2A
102
}
330
2A
100
AcDbProxyObject
 90
      499
 91
      501
 93
      500
310
4411DBDD5C985D5915DA5D1A115919D95CD0340902404333333333333E3BF0000000000000F9010740901411070040501600405405064090741402480A1B50
1001
ACAD
1000
AcDbSavedByObjectVersion
1070
     0
  0
ACAD_PROXY_OBJECT
  5
38
102
{ACAD_REACTORS
330
2A
102
}
330
2A
100
AcDbProxyObject
 90
      499
 91
      501
 93
      444
310
42D31A5B995C185D1D195C9B90E409028333333333333E3BF0000000000000FB010790141107004050750841D405064090741402483A0350
1001
ACAD
1000
AcDbSavedByObjectVersion
1070
     0
  0
ACAD_PROXY_OBJECT
  5
33
102
{ACAD_REACTORS
330
2A
102
}
330
2A
100
AcDbProxyObject
 90
      499
 91
      501
 93
      420
310
425499585B1A5CDD1A58D08409028333333333333E3BF0000000000000FB01079019070040501508421405064090741402480A1B40
1001
ACAD
1000
AcDbSavedByObjectVersion
1070
     0
  0
ACAD_PROXY_OBJECT
  5
37
102
{ACAD_REACTORS
330
2A
102
}
330
2A
100
AcDbProxyObject
 90
      499
 91
      501
 93
      412
310
41D51A1A58DAD95B90D409028333333333333E3BF0000000000000FB010790141107004050150C41D405064090741402480A0350
1001
ACAD
1000
AcDbSavedByObjectVersion
1070
     0
  0
XRECORD
  5
13F
102
{ACAD_REACTORS
330
136
102
}
330
136
100
AcDbXrecord
 90
        0
  0
XRECORD
  5
155
102
{ACAD_REACTORS
330
136
102
}
330
136
100
AcDbXrecord
1000
DSTYLE
1002
{
1070
   340
340
11
1002
}
  0
XRECORD
  5
140
102
{ACAD_REACTORS
330
136
102
}
330
136
100
AcDbXrecord
  1
{42A8309F-92A8-4F15-8C8D-46C86C084B7A}
  0
XRECORD
  5
139
102
{ACAD_REACTORS
330
136
102
}
330
136
100
AcDbXrecord
  1

  0
XRECORD
  5
13E
102
{ACAD_REACTORS
330
136
102
}
330
136
100
AcDbXrecord
 90
        1
  0
XRECORD
  5
13B
102
{ACAD_REACTORS
330
136
102
}
330
136
100
AcDbXrecord
340
1A
  0
XRECORD
  5
13D
102
{ACAD_REACTORS
330
136
102
}
330
136
100
AcDbXrecord
 90
    10781
  0
XRECORD
  5
13C
102
{ACAD_REACTORS
330
136
102
}
330
136
100
AcDbXrecord
340
19
  0
XRECORD
  5
142
102
{ACAD_REACTORS
330
136
102
}
330
136
100
AcDbXrecord
 40
0.0
  0
XRECORD
  5
145
102
{ACAD_REACTORS
330
136
102
}
330
136
100
AcDbXrecord
340
0
  0
XRECORD
  5
14B
102
{ACAD_REACTORS
330
136
102
}
330
136
100
AcDbXrecord
 10
0.0
 20
0.0
 30
0.0
  0
XRECORD
  5
147
102
{ACAD_REACTORS
330
136
102
}
330
136
100
AcDbXrecord
 10
0.0
 20
0.0
 30
0.0
  0
XRECORD
  5
14A
102
{ACAD_REACTORS
330
136
102
}
330
136
100
AcDbXrecord
 10
0.0
 20
0.0
 30
0.0
  0
XRECORD
  5
148
102
{ACAD_REACTORS
330
136
102
}
330
136
100
AcDbXrecord
 10
0.0
 20
0.0
 30
0.0
  0
XRECORD
  5
149
102
{ACAD_REACTORS
330
136
102
}
330
136
100
AcDbXrecord
 10
0.0
 20
0.0
 30
0.0
  0
XRECORD
  5
146
102
{ACAD_REACTORS
330
136
102
}
330
136
100
AcDbXrecord
 10
0.0
 20
0.0
 30
0.0
  0
XRECORD
  5
143
102
{ACAD_REACTORS
330
136
102
}
330
136
100
AcDbXrecord
340
0
  0
XRECORD
  5
144
102
{ACAD_REACTORS
330
136
102
}
330
136
100
AcDbXrecord
 70
     0
  0
XRECORD
  5
13A
102
{ACAD_REACTORS
330
136
102
}
330
136
100
AcDbXrecord
  1

  0
XRECORD
  5
137
102
{ACAD_REACTORS
330
136
102
}
330
136
100
AcDbXrecord
 90
        1
  0
XRECORD
  5
138
102
{ACAD_REACTORS
330
136
102
}
330
136
100
AcDbXrecord
 90
       70
  0
XRECORD
  5
14E
102
{ACAD_REACTORS
330
136
102
}
330
136
100
AcDbXrecord
340
0
  0
XRECORD
  5
154
102
{ACAD_REACTORS
330
136
102
}
330
136
100
AcDbXrecord
 10
0.0
 20
0.0
 30
0.0
  0
XRECORD
  5
150
102
{ACAD_REACTORS
330
136
102
}
330
136
100
AcDbXrecord
 10
0.0
 20
0.0
 30
0.0
  0
XRECORD
  5
153
102
{ACAD_REACTORS
330
136
102
}
330
136
100
AcDbXrecord
 10
0.0
 20
0.0
 30
0.0
  0
XRECORD
  5
151
102
{ACAD_REACTORS
330
136
102
}
330
136
100
AcDbXrecord
 10
0.0
 20
0.0
 30
0.0
  0
XRECORD
  5
152
102
{ACAD_REACTORS
330
136
102
}
330
136
100
AcDbXrecord
 10
0.0
 20
0.0
 30
0.0
  0
XRECORD
  5
14F
102
{ACAD_REACTORS
330
136
102
}
330
136
100
AcDbXrecord
 10
0.0
 20
0.0
 30
0.0
  0
XRECORD
  5
14C
102
{ACAD_REACTORS
330
136
102
}
330
136
100
AcDbXrecord
340
0
  0
XRECORD
  5
14D
102
{ACAD_REACTORS
330
136
102
}
330
136
100
AcDbXrecord
 70
     0
  0
XRECORD
  5
141
102
{ACAD_REACTORS
330
136
102
}
330
136
100
AcDbXrecord
  1
{FAEB1C32-E019-11D5-929B-00C0DF256EC4}
  0
DICTIONARYVAR
  5
159
102
{ACAD_REACTORS
330
156
102
}
330
156
100
DictionaryVariables
280
     0
  1
2
  0
DICTIONARYVAR
  5
15A
102
{ACAD_REACTORS
330
156
102
}
330
156
100
DictionaryVariables
280
     0
  1
1
  0
DICTIONARY
  5
15D
330
3D
100
AcDbDictionary
280
     1
  3
ACAD_XREC_ROUNDTRIP
360
15E
  0
DICTIONARY
  5
15B
330
3C
100
AcDbDictionary
280
     1
  3
ACAD_XREC_ROUNDTRIP
360
15C
  0
DICTIONARY
  5
15F
330
3E
100
AcDbDictionary
280
     1
  3
ACAD_XREC_ROUNDTRIP
360
160
  0
XRECORD
  5
15E
102
{ACAD_REACTORS
330
15D
102
}
330
15D
100
AcDbXrecord
102
MATERIAL
148
0.0
149
0.0
149
0.0
 93
        0
 94
      127
282
     0
 72
     1
 77
     1
171
     1
175
     1
179
     1
273
     0
  0
XRECORD
  5
15C
102
{ACAD_REACTORS
330
15B
102
}
330
15B
100
AcDbXrecord
102
MATERIAL
148
0.0
149
0.0
149
0.0
 93
        0
 94
      127
282
     0
 72
     1
 77
     1
171
     1
175
     1
179
     1
273
     0
  0
XRECORD
  5
160
102
{ACAD_REACTORS
330
15F
102
}
330
15F
100
AcDbXrecord
102
MATERIAL
148
0.0
149
0.0
149
0.0
 93
        0
 94
      127
282
     0
 72
     1
 77
     1
171
     1
175
     1
179
     1
273
     0
  0
ENDSEC
  0
EOF
